<svg id="Layer_1" data-name="Layer 1" xmlns="http://www.w3.org/2000/svg" viewBox="0 0 306.304 105"><path d="M108.658,74.826V87.979h-1.7V74.826Z" transform="translate(-3 -10)" style="fill:#9958ed"/><path d="M111.759,81.09c0-.975-.02-1.776-.078-2.556H113.2l.1,1.561h.039a3.475,3.475,0,0,1,3.123-1.776c1.308,0,3.337.781,3.337,4.02v5.64h-1.717V82.535c0-1.523-.566-2.791-2.186-2.791a2.44,2.44,0,0,0-2.3,1.756,2.475,2.475,0,0,0-.117.8v5.679h-1.717Z" transform="translate(-3 -10)" style="fill:#9958ed"/><path d="M124.577,75.821v2.713h2.459v1.307h-2.459v5.094c0,1.171.332,1.835,1.288,1.835a3.785,3.785,0,0,0,1-.118l.078,1.288a4.19,4.19,0,0,1-1.522.235,2.382,2.382,0,0,1-1.854-.722,3.5,3.5,0,0,1-.664-2.459V79.841h-1.463V78.534H122.9V76.27Z" transform="translate(-3 -10)" style="fill:#9958ed"/><path d="M129.805,83.569a3.027,3.027,0,0,0,3.24,3.279,6.215,6.215,0,0,0,2.615-.488l.293,1.229a7.655,7.655,0,0,1-3.142.586,4.387,4.387,0,0,1-4.645-4.762c0-2.85,1.678-5.094,4.43-5.094,3.084,0,3.9,2.713,3.9,4.45a6.614,6.614,0,0,1-.058.8Zm5.035-1.23c.02-1.092-.448-2.79-2.381-2.79a2.846,2.846,0,0,0-2.634,2.79Z" transform="translate(-3 -10)" style="fill:#9958ed"/><path d="M138.623,74.123h1.717V87.979h-1.717Z" transform="translate(-3 -10)" style="fill:#9958ed"/><path d="M143.227,74.123h1.717V87.979h-1.717Z" transform="translate(-3 -10)" style="fill:#9958ed"/><path d="M149.744,75.879a1.064,1.064,0,0,1-2.128,0,1.046,1.046,0,0,1,1.073-1.073A1.02,1.02,0,0,1,149.744,75.879Zm-1.913,12.1V78.534h1.717v9.445Z" transform="translate(-3 -10)" style="fill:#9958ed"/><path d="M160.534,78.534c-.039.683-.078,1.444-.078,2.595v5.484c0,2.167-.43,3.494-1.347,4.313a5.005,5.005,0,0,1-3.435,1.132,6.1,6.1,0,0,1-3.142-.78l.43-1.308a5.327,5.327,0,0,0,2.771.742c1.757,0,3.044-.918,3.044-3.3V86.36h-.038a3.374,3.374,0,0,1-3.006,1.58c-2.342,0-4.02-1.99-4.02-4.606,0-3.2,2.088-5.015,4.254-5.015a3.143,3.143,0,0,1,2.947,1.639h.039l.078-1.424Zm-1.776,3.727a2.51,2.51,0,0,0-2.5-2.595c-1.639,0-2.81,1.385-2.81,3.571,0,1.854.937,3.4,2.791,3.4a2.513,2.513,0,0,0,2.381-1.757,3,3,0,0,0,.136-.917Z" transform="translate(-3 -10)" style="fill:#9958ed"/><path d="M164.257,83.569a3.027,3.027,0,0,0,3.24,3.279,6.211,6.211,0,0,0,2.615-.488l.293,1.229a7.651,7.651,0,0,1-3.142.586,4.387,4.387,0,0,1-4.645-4.762c0-2.85,1.678-5.094,4.43-5.094,3.084,0,3.9,2.713,3.9,4.45a6.412,6.412,0,0,1-.058.8Zm5.035-1.23c.02-1.092-.448-2.79-2.38-2.79a2.846,2.846,0,0,0-2.635,2.79Z" transform="translate(-3 -10)" style="fill:#9958ed"/><path d="M173.075,81.09c0-.975-.019-1.776-.078-2.556h1.522l.1,1.561h.039a3.472,3.472,0,0,1,3.122-1.776c1.308,0,3.338.781,3.338,4.02v5.64H179.4V82.535c0-1.523-.566-2.791-2.186-2.791a2.439,2.439,0,0,0-2.3,1.756,2.474,2.474,0,0,0-.118.8v5.679h-1.717Z" transform="translate(-3 -10)" style="fill:#9958ed"/><path d="M185.893,75.821v2.713h2.459v1.307h-2.459v5.094c0,1.171.332,1.835,1.288,1.835a3.8,3.8,0,0,0,1-.118l.078,1.288a4.2,4.2,0,0,1-1.523.235,2.382,2.382,0,0,1-1.854-.722,3.505,3.505,0,0,1-.663-2.459V79.841h-1.464V78.534h1.464V76.27Z" transform="translate(-3 -10)" style="fill:#9958ed"/><path d="M196.6,83.842l-1.367,4.137h-1.756l4.469-13.153H200l4.488,13.153h-1.815l-1.405-4.137Zm4.313-1.327-1.289-3.786c-.292-.859-.487-1.64-.683-2.4h-.038c-.2.78-.41,1.58-.664,2.38l-1.288,3.806Z" transform="translate(-3 -10)" style="fill:#9958ed"/><path d="M208.212,75.879a1.064,1.064,0,0,1-2.128,0,1.046,1.046,0,0,1,1.074-1.073A1.019,1.019,0,0,1,208.212,75.879Zm-1.913,12.1V78.534h1.718v9.445Z" transform="translate(-3 -10)" style="fill:#9958ed"/><path d="M214.845,82.066v1.268h-4.82V82.066Z" transform="translate(-3 -10)" style="fill:#9958ed"/><path d="M218.961,83.842,217.6,87.979h-1.757l4.47-13.153h2.049l4.489,13.153H225.03l-1.405-4.137Zm4.313-1.327-1.288-3.786c-.293-.859-.488-1.64-.683-2.4h-.039c-.2.78-.41,1.58-.663,2.38l-1.289,3.806Z" transform="translate(-3 -10)" style="fill:#9958ed"/><path d="M228.364,86.223a4.5,4.5,0,0,0,2.263.683c1.249,0,1.835-.624,1.835-1.405,0-.82-.488-1.269-1.756-1.737-1.7-.6-2.5-1.542-2.5-2.674,0-1.522,1.229-2.771,3.259-2.771a4.706,4.706,0,0,1,2.322.586l-.429,1.249a3.669,3.669,0,0,0-1.932-.547c-1.015,0-1.581.585-1.581,1.288,0,.781.566,1.132,1.8,1.6,1.639.624,2.478,1.443,2.478,2.849,0,1.659-1.288,2.83-3.532,2.83a5.386,5.386,0,0,1-2.654-.644Z" transform="translate(-3 -10)" style="fill:#9958ed"/><path d="M236.089,86.223a4.5,4.5,0,0,0,2.264.683c1.249,0,1.835-.624,1.835-1.405,0-.82-.488-1.269-1.757-1.737-1.7-.6-2.5-1.542-2.5-2.674,0-1.522,1.23-2.771,3.259-2.771a4.707,4.707,0,0,1,2.323.586l-.43,1.249a3.663,3.663,0,0,0-1.932-.547c-1.014,0-1.58.585-1.58,1.288,0,.781.566,1.132,1.795,1.6,1.639.624,2.479,1.443,2.479,2.849,0,1.659-1.288,2.83-3.533,2.83a5.392,5.392,0,0,1-2.654-.644Z" transform="translate(-3 -10)" style="fill:#9958ed"/><path d="M245.962,75.879a1.064,1.064,0,0,1-2.128,0,1.046,1.046,0,0,1,1.074-1.073A1.019,1.019,0,0,1,245.962,75.879Zm-1.913,12.1V78.534h1.718v9.445Z" transform="translate(-3 -10)" style="fill:#9958ed"/><path d="M248.38,86.223a4.5,4.5,0,0,0,2.264.683c1.249,0,1.835-.624,1.835-1.405,0-.82-.489-1.269-1.757-1.737-1.7-.6-2.5-1.542-2.5-2.674,0-1.522,1.229-2.771,3.259-2.771a4.706,4.706,0,0,1,2.322.586l-.429,1.249a3.669,3.669,0,0,0-1.932-.547c-1.015,0-1.581.585-1.581,1.288,0,.781.566,1.132,1.8,1.6,1.639.624,2.478,1.443,2.478,2.849,0,1.659-1.288,2.83-3.532,2.83a5.386,5.386,0,0,1-2.654-.644Z" transform="translate(-3 -10)" style="fill:#9958ed"/><path d="M258.408,75.821v2.713h2.459v1.307h-2.459v5.094c0,1.171.332,1.835,1.288,1.835a3.794,3.794,0,0,0,1-.118l.078,1.288a4.194,4.194,0,0,1-1.522.235,2.379,2.379,0,0,1-1.854-.722,3.5,3.5,0,0,1-.664-2.459V79.841h-1.464V78.534h1.464V76.27Z" transform="translate(-3 -10)" style="fill:#9958ed"/><path d="M268.027,87.979l-.136-1.19h-.058a3.518,3.518,0,0,1-2.889,1.405,2.69,2.69,0,0,1-2.888-2.713c0-2.283,2.029-3.532,5.679-3.512v-.2a1.948,1.948,0,0,0-2.147-2.186,4.709,4.709,0,0,0-2.459.7l-.39-1.132a5.865,5.865,0,0,1,3.1-.839c2.888,0,3.591,1.971,3.591,3.864v3.533a13.3,13.3,0,0,0,.156,2.263Zm-.253-4.82c-1.874-.039-4,.293-4,2.127a1.52,1.52,0,0,0,1.62,1.64,2.349,2.349,0,0,0,2.283-1.581,1.783,1.783,0,0,0,.1-.547Z" transform="translate(-3 -10)" style="fill:#9958ed"/><path d="M272.2,81.09c0-.975-.02-1.776-.078-2.556h1.522l.1,1.561h.039a3.475,3.475,0,0,1,3.123-1.776c1.307,0,3.337.781,3.337,4.02v5.64h-1.717V82.535c0-1.523-.566-2.791-2.186-2.791a2.44,2.44,0,0,0-2.3,1.756,2.475,2.475,0,0,0-.117.8v5.679H272.2Z" transform="translate(-3 -10)" style="fill:#9958ed"/><path d="M289.761,87.628a6.327,6.327,0,0,1-2.713.547,4.488,4.488,0,0,1-4.7-4.821,4.8,4.8,0,0,1,5.074-5.016,5.724,5.724,0,0,1,2.381.489l-.39,1.327a3.975,3.975,0,0,0-1.991-.449,3.561,3.561,0,0,0-.058,7.1,4.873,4.873,0,0,0,2.107-.469Z" transform="translate(-3 -10)" style="fill:#9958ed"/><path d="M292.607,83.569a3.027,3.027,0,0,0,3.24,3.279,6.211,6.211,0,0,0,2.615-.488l.293,1.229a7.651,7.651,0,0,1-3.142.586,4.387,4.387,0,0,1-4.645-4.762c0-2.85,1.678-5.094,4.43-5.094,3.084,0,3.9,2.713,3.9,4.45a6.412,6.412,0,0,1-.058.8Zm5.036-1.23c.019-1.092-.449-2.79-2.381-2.79a2.846,2.846,0,0,0-2.635,2.79Z" transform="translate(-3 -10)" style="fill:#9958ed"/><path d="M90.57,34.533h16.81v3.959h-5.867V61.529h-5.04V38.492h-5.9Z" transform="translate(-3 -10)" style="fill:#fcfcfc"/><path d="M110.154,61.529v-27h4.679v8.782h.072a4.6,4.6,0,0,1,4.212-2.627c2.663,0,4.823,1.548,4.679,5.183V61.529h-4.679V47.635c0-1.98-.217-3.276-1.98-3.347s-2.376,1.583-2.3,3.743v13.5Z" transform="translate(-3 -10)" style="fill:#fcfcfc"/><path d="M137.369,61.529a3.748,3.748,0,0,1-.288-2.088h-.072a6.058,6.058,0,0,1-1.872,1.944,4.168,4.168,0,0,1-2.232.684c-3.78,0-5.435-1.907-5.435-6.083,0-4.643,3.276-5.759,6.947-7.271,1.979-.828,2.7-1.728,2.3-3.383-.216-.9-.936-1.044-2.2-1.044-2.124,0-2.484,1.115-2.448,2.951h-4.463c-.036-3.851,1.224-6.551,7.091-6.551,6.371,0,6.767,3.348,6.695,6.011V58.686a10.837,10.837,0,0,0,.4,2.843Zm-.648-10.69c-1.152.791-2.556,1.583-3.78,2.591a3.122,3.122,0,0,0-.792,2.448c0,1.548.468,2.592,2.2,2.592,2.772,0,2.268-3.492,2.376-5.436Z" transform="translate(-3 -10)" style="fill:#fcfcfc"/><path d="M150.833,43.315h.072a4.362,4.362,0,0,1,4.212-2.627c2.663,0,4.823,1.548,4.679,5.183V61.529h-4.679V48c0-1.98-.217-3.276-1.98-3.348s-2.376,1.584-2.3,3.744V61.529h-4.679v-20.3h4.679Z" transform="translate(-3 -10)" style="fill:#fcfcfc"/><path d="M163.686,61.529v-27h4.679v12.2c0,.864-.036,1.692-.072,2.556h.072l4.427-8.063H177.9L172.792,49.4l4.968,12.13h-5.219l-2.916-8.279-1.26,2.088v6.191Z" transform="translate(-3 -10)" style="fill:#fcfcfc"/><path d="M189.352,61.529a3.757,3.757,0,0,1-.288-2.088h-.072a6.058,6.058,0,0,1-1.872,1.944,4.162,4.162,0,0,1-2.231.684c-3.78,0-5.436-1.907-5.436-6.083,0-4.643,3.276-5.759,6.947-7.271,1.98-.828,2.7-1.728,2.3-3.383-.216-.9-.936-1.044-2.2-1.044-2.123,0-2.484,1.115-2.447,2.951H179.6c-.036-3.851,1.224-6.551,7.091-6.551,6.372,0,6.768,3.348,6.7,6.011V58.686a10.837,10.837,0,0,0,.4,2.843Zm-.648-10.69c-1.152.791-2.556,1.583-3.78,2.591a3.125,3.125,0,0,0-.791,2.448c0,1.548.468,2.592,2.195,2.592,2.772,0,2.268-3.492,2.376-5.436Z" transform="translate(-3 -10)" style="fill:#fcfcfc"/><path d="M203,43.315h.071a4.62,4.62,0,0,1,4.464-2.627c1.728-.036,4.031.72,4.32,2.627h.071a4.724,4.724,0,0,1,4.68-2.627c3.456,0,4.967,2.16,4.967,4.319V61.529h-4.679V47.815c0-1.836-.18-3.635-2.232-3.527-2.015.108-2.376,1.511-2.376,3.887V61.529H207.6V47.563c0-1.8-.144-3.312-2.3-3.275-2.2.035-2.3,1.655-2.3,3.887V61.529h-4.68v-20.3H203Z" transform="translate(-3 -10)" style="fill:#fcfcfc"/><path d="M235.36,61.529a3.757,3.757,0,0,1-.288-2.088H235a6.058,6.058,0,0,1-1.872,1.944,4.168,4.168,0,0,1-2.232.684c-3.779,0-5.435-1.907-5.435-6.083,0-4.643,3.276-5.759,6.947-7.271,1.98-.828,2.7-1.728,2.3-3.383-.216-.9-.936-1.044-2.2-1.044-2.123,0-2.484,1.115-2.448,2.951h-4.463c-.036-3.851,1.224-6.551,7.091-6.551,6.371,0,6.767,3.348,6.695,6.011V58.686a10.837,10.837,0,0,0,.4,2.843Zm-.648-10.69c-1.152.791-2.556,1.583-3.78,2.591a3.125,3.125,0,0,0-.791,2.448c0,1.548.467,2.592,2.2,2.592,2.772,0,2.268-3.492,2.376-5.436Z" transform="translate(-3 -10)" style="fill:#fcfcfc"/><path d="M248.824,43.315h.072a4.362,4.362,0,0,1,4.212-2.627c2.663,0,4.823,1.548,4.679,5.183V61.529h-4.679V48c0-1.98-.216-3.276-1.98-3.348s-2.376,1.584-2.3,3.744V61.529h-4.679v-20.3h4.679Z" transform="translate(-3 -10)" style="fill:#fcfcfc"/><path d="M262.613,38.78V34.533h4.679V38.78Zm0,22.749v-20.3h4.679v20.3Z" transform="translate(-3 -10)" style="fill:#fcfcfc"/><path d="M271.686,52.351v-4.14h8.566v4.14Z" transform="translate(-3 -10)" style="fill:#fcfcfc"/><path d="M282.269,61.529l6.443-27h6.8l6.119,27h-5.4L294.9,54.69H289l-1.332,6.839Zm7.523-10.8h4.32l-1.368-7.667c-.252-1.259-.36-2.483-.5-3.743-.036-.612-.108-1.224-.18-1.8h-.072c-.072.575-.144,1.187-.18,1.8-.144,1.26-.252,2.484-.5,3.743Z" transform="translate(-3 -10)" style="fill:#fcfcfc"/><path d="M304.625,38.78V34.533H309.3V38.78Zm0,22.749v-20.3H309.3v20.3Z" transform="translate(-3 -10)" style="fill:#fcfcfc"/><path d="M107.9,115q0-31.266,0-62.531V10.107H3.512c-.171,0-.341,0-.512,0,.017-.034.032-.1.051-.1.136-.008.273,0,.41,0H108V10.8q0,51.872,0,103.744A2.232,2.232,0,0,1,107.9,115Z" transform="translate(-3 -10)" style="fill:#fff"/><path d="M35.016,67.1a3.86,3.86,0,0,1-2.419-.992,9.019,9.019,0,0,1-3.416-4.694,6.414,6.414,0,0,1-.026-4.611,3.186,3.186,0,0,1,3.976-1.834c.11.035.219.072.391.129.052-1.017.137-1.992.136-2.967A1.694,1.694,0,0,1,34.1,51c.069-.084.3-.158.349-.114.152.13.349.317.356.488.031.783,0,1.568,0,2.353,0,1.427,0,2.854.029,4.281a28.053,28.053,0,0,0,.147,2.872A25.391,25.391,0,0,0,37,69.034a17.719,17.719,0,0,0,11.551,9.432,21.693,21.693,0,0,0,7.257.767,19.557,19.557,0,0,0,8.233-2.473,16.848,16.848,0,0,0,5.679-5.124,17.553,17.553,0,0,0,2.852-6.366,31.823,31.823,0,0,0,.782-4.6c.221-2.457.3-4.926.423-7.39.027-.54-.04-1.083-.063-1.624,0-.1-.038-.225,0-.3.132-.239.3-.462.447-.691.179.2.482.38.515.6.131.869.193,1.749.248,2.628.033.526.006,1.057.006,1.615a10.962,10.962,0,0,1,1.322-.779A2.66,2.66,0,0,1,79.734,56.2a9.189,9.189,0,0,1,.167,5.1A7.5,7.5,0,0,1,76.622,65.8a3.492,3.492,0,0,1-2.67.554c-.3-.049-.4-.013-.5.294a22.779,22.779,0,0,1-2.667,5.644,20.7,20.7,0,0,1-1.972,2.461,17.665,17.665,0,0,1-5.772,3.974.864.864,0,0,0-.462.564c-.9,2.134.962,5.139,3.093,5.755,1.591.46,3.169.982,4.718,1.566A24.172,24.172,0,0,1,77.929,90.8,16.362,16.362,0,0,1,82.59,97.67c.21.57.393,1.149.575,1.729a.76.76,0,0,1,.042.449c-.092.245-.2.584-.394.669-.325.142-.615-.068-.753-.42-.364-.93-.755-1.852-1.089-2.793a14.44,14.44,0,0,0-2.152-3.677,13.424,13.424,0,0,0-4.382-3.749c-1.487-.823-3.095-1.431-4.663-2.1a13.242,13.242,0,0,0-1.684-.548.52.52,0,0,0-.447.114,14.5,14.5,0,0,1-4.215,3.481,20.722,20.722,0,0,1-5.347,1.908,15.8,15.8,0,0,1-4.289.337,19.794,19.794,0,0,1-6.184-1.16,12.529,12.529,0,0,1-5.341-3.684,6.992,6.992,0,0,1-.525-.893c-1.217.458-2.489.863-3.7,1.408a17.638,17.638,0,0,0-6.1,4.067,20.608,20.608,0,0,0-2.1,2.977,10.289,10.289,0,0,0-1.49,3.763,1.961,1.961,0,0,1-.157.431.569.569,0,0,1-.782.357A.825.825,0,0,1,27,99.684a7.6,7.6,0,0,1,.517-2.045c.633-1.369,1.325-2.718,2.085-4.021a11.072,11.072,0,0,1,3-3.1,21.47,21.47,0,0,1,3.433-2.239c1.688-.83,3.467-1.48,5.224-2.162,1.167-.454,2.391-.767,3.541-1.257A4.041,4.041,0,0,0,47.239,81.6a10.048,10.048,0,0,0,.087-1.727.557.557,0,0,0-.3-.418,18.184,18.184,0,0,1-5.945-3.214,18.93,18.93,0,0,1-3.346-3.411A17.469,17.469,0,0,1,35.016,67.1Zm13.507,12.78a6.319,6.319,0,0,1-.739,3.958A5.458,5.458,0,0,1,44.8,86.228c-.669.267-1.358.483-2.052.727a1.3,1.3,0,0,0,.1.232,9.639,9.639,0,0,0,3.111,2.634,19.043,19.043,0,0,0,10.815,1.906,16.358,16.358,0,0,0,6.084-1.9,9.018,9.018,0,0,0,3.791-3.174c-3.851-.912-5.971-3.126-5.429-7.306A21.934,21.934,0,0,1,48.523,79.883ZM74.024,65.2a1,1,0,0,1,.252-.052,4.9,4.9,0,0,0,3.367-1.852,2.555,2.555,0,0,0,.591-1,17.794,17.794,0,0,0,.688-2.64,4.282,4.282,0,0,0-.71-3.333,1.07,1.07,0,0,0-.654-.41,1.987,1.987,0,0,0-1.688.5,6.273,6.273,0,0,1-.793.59Zm-39.408.659a39.713,39.713,0,0,1-1.1-9.458A5.353,5.353,0,0,0,32,56.043a2.059,2.059,0,0,0-1.853,1.864,7.963,7.963,0,0,0,0,1.933C30.519,62.649,32.5,64.3,34.616,65.855Z" transform="translate(-3 -10)" style="fill:#fff"/><path d="M87.508,69.831a12.078,12.078,0,0,1-.923,5.175,7.069,7.069,0,0,1-3.5,3.68.209.209,0,0,1-.095.033c-.269-.018-.537-.041-.805-.063a2.738,2.738,0,0,1,.35-.684c.688-.726,1.464-1.374,2.1-2.14a8.014,8.014,0,0,0,1.555-4.08,16.9,16.9,0,0,0-.874-7.435c-.95-3.157-1.984-6.29-2.9-9.456q-1.2-4.114-2.207-8.283a37.738,37.738,0,0,0-2.322-6.736,29.148,29.148,0,0,0-4.413-7.276,20.174,20.174,0,0,0-6.095-5.061,10.77,10.77,0,0,0-5.306-1.3,5.53,5.53,0,0,0-1.62.373,1.04,1.04,0,0,1-1.082-.1,7.468,7.468,0,0,0-2.98-1.351,12.113,12.113,0,0,0-4.582-.095c-1.235.258-2.482.453-3.72.7a16.282,16.282,0,0,0-4.638,1.991,23.924,23.924,0,0,0-9.77,9.5,34.914,34.914,0,0,0-3.136,7.558c-.855,2.923-1.615,5.874-2.459,8.8-.4,1.381-.9,2.731-1.349,4.1-.779,2.38-1.571,4.755-2.318,7.144a29.9,29.9,0,0,0-.819,3.2,11.835,11.835,0,0,0-.375,3.1,8.7,8.7,0,0,0,2.467,5.762,3.859,3.859,0,0,0,.784.606c.374.212.579.516.329.859-.11.15-.56.177-.792.091a4.455,4.455,0,0,1-2.488-2.161,21.949,21.949,0,0,1-1.406-3.5,6.032,6.032,0,0,1-.148-2.248,27.968,27.968,0,0,1,.584-3.859c.372-1.569.864-3.112,1.369-4.645.715-2.171,1.534-4.308,2.228-6.486.668-2.1,1.29-4.215,1.83-6.35A85.044,85.044,0,0,1,31.068,39.7a28.909,28.909,0,0,1,4.571-7.451,18.982,18.982,0,0,1,5.085-4.369c1.315-.8,2.677-1.543,4.055-2.238a18.754,18.754,0,0,1,5.215-1.614,17.943,17.943,0,0,1,2.642-.378,26.109,26.109,0,0,1,3.305.171,9.056,9.056,0,0,1,3.968,1.431.5.5,0,0,0,.367.049,9.352,9.352,0,0,1,7.182.869,22.836,22.836,0,0,1,8.889,8.061,27.087,27.087,0,0,1,3.292,6.584c.959,2.89,1.827,5.81,2.7,8.728.941,3.162,1.834,6.337,2.754,9.5.5,1.722,1.066,3.427,1.5,5.165A18.969,18.969,0,0,1,87.508,69.831Z" transform="translate(-3 -10)" style="fill:#fff"/><path d="M33.693,50.433a14.343,14.343,0,0,1,.762-1.524c1.708-2.617,3.385-5.257,5.183-7.811,1.661-2.359,3.381-4.688,5.223-6.908a17.461,17.461,0,0,1,6.625-4.812,30.728,30.728,0,0,1,3.776-1.359,23.346,23.346,0,0,1,2.953-.489,1.588,1.588,0,0,1,.435.06l.061.175a5.366,5.366,0,0,1-.876.455,41.4,41.4,0,0,0-6.7,2.466,17.384,17.384,0,0,0-2.865,1.9,19.968,19.968,0,0,0-2.69,2.5c-1.155,1.331-2.208,2.754-3.25,4.178-1.555,2.125-3.064,4.283-4.59,6.429q-1.312,1.845-2.616,3.7c-.156.221-.3.449-.441.682-.317.539-.467.6-.99.361Z" transform="translate(-3 -10)" style="fill:#fff"/><path d="M33.692,50.432a3.2,3.2,0,0,1-.308.384c-.113.106-.265.255-.387.244a.485.485,0,0,1-.34-.3,2.731,2.731,0,0,1-.091-1.053c.419-2.118.808-4.247,1.352-6.333a25.55,25.55,0,0,1,1.353-3.394,20.88,20.88,0,0,1,3.1-5.229A22.957,22.957,0,0,1,45.749,28.5a20.344,20.344,0,0,1,6.087-2.079,14.751,14.751,0,0,1,5.847.171,7.762,7.762,0,0,1-.778,0,16.019,16.019,0,0,0-6.957,1.1,22.875,22.875,0,0,0-7.6,4.344,23.513,23.513,0,0,0-5.2,6.361,27.864,27.864,0,0,0-3.015,8.486c-.166.908-.408,1.8-.566,2.712a2.709,2.709,0,0,0,.125.842Z" transform="translate(-3 -10)" style="fill:#fff"/><path d="M79.627,54.93A3.5,3.5,0,0,1,78.5,52.976c-.319-1.32-.553-2.66-.823-3.991A42.916,42.916,0,0,0,75.2,40.546a24.573,24.573,0,0,0-9.454-11.28,12.272,12.272,0,0,0-4-1.537c-.242-.054-.478-.138-.715-.213-.022-.007-.031-.055-.13-.239a19.475,19.475,0,0,1,2.158.21,11.949,11.949,0,0,1,5.253,2.7c.765.646,1.568,1.257,2.274,1.963a25.551,25.551,0,0,1,5.162,7.258,55.586,55.586,0,0,1,2.341,6.808,53.358,53.358,0,0,1,1.688,7.735,5.93,5.93,0,0,1,.007.943Z" transform="translate(-3 -10)" style="fill:#fff"/><path d="M45.292,55.037a5.185,5.185,0,0,1,.807,4.55,1.815,1.815,0,0,1-1.666,1.473A2,2,0,0,1,42.6,59.836a5,5,0,0,1,.064-4.723c-.393.289-.79.573-1.178.868-.19.144-.341.375-.551.444a.88.88,0,0,1-.65-.081.453.453,0,0,1-.106-.74,11,11,0,0,1,1.4-1.258,3.749,3.749,0,0,1,3.879-.3,8.412,8.412,0,0,1,1.76,1.353.393.393,0,0,1,.1.357.368.368,0,0,1-.337.123,5.437,5.437,0,0,1-.829-.354C45.862,55.377,45.58,55.2,45.292,55.037Z" transform="translate(-3 -10)" style="fill:#fff"/><path d="M64.832,54.916a5.106,5.106,0,0,1,.329,4.6,1.768,1.768,0,0,1-2.677,1.039,2.507,2.507,0,0,1-.907-1.6,5.2,5.2,0,0,1,.667-3.92q-.394.236-.79.47c-.328.193-.717.529-1.018.1-.282-.4.2-.656.442-.849a8.908,8.908,0,0,1,1.538-.977,3.765,3.765,0,0,1,4.369.9c.267.261.5.556.746.839a.555.555,0,0,1-.06.856.787.787,0,0,1-.7-.1c-.4-.28-.728-.666-1.12-.961A4.754,4.754,0,0,0,64.832,54.916Z" transform="translate(-3 -10)" style="fill:#fff"/><path d="M60.632,28.238a16.4,16.4,0,0,1,6.243,3.8A26.174,26.174,0,0,1,71.1,37.687c.767,1.369,1.417,2.809,2.045,4.25a34.574,34.574,0,0,1,2.463,8.673c.049.321.037.632-.286.7-.132.028-.422-.259-.5-.456a12.35,12.35,0,0,1-.464-1.65,40.223,40.223,0,0,0-3.535-9.443,29.7,29.7,0,0,0-4.446-6.544,21.95,21.95,0,0,0-5.234-4.35,5.846,5.846,0,0,1-.632-.5Z" transform="translate(-3 -10)" style="fill:#fff"/><path d="M57.835,28.971a12.622,12.622,0,0,1-1.044.827,15.714,15.714,0,0,0-3.965,4.077c-1.3,1.741-2.464,3.582-3.716,5.359a30.838,30.838,0,0,1-4.317,4.821,20.868,20.868,0,0,1-4.839,3.426c-.153.076-.392-.02-.592-.036.03-.227-.026-.547.1-.665.5-.453,1.071-.823,1.587-1.258.872-.734,1.761-1.454,2.574-2.25,1.385-1.356,2.793-2.7,4.053-4.171,1.412-1.648,2.7-3.405,3.988-5.155A16.69,16.69,0,0,1,57.4,28.978a2.744,2.744,0,0,1,.36-.128Z" transform="translate(-3 -10)" style="fill:#fff"/><path d="M76.06,80.4c.671-.446,1.321-.926,2.016-1.332a8.174,8.174,0,0,0,3.5-3.95,17.1,17.1,0,0,0,.916-8.431c-.169-1.952-.6-3.88-.913-5.82-.034-.216-.038-.437-.056-.656l.2-.065a6.329,6.329,0,0,1,.4.856c.39,1.277.76,2.56,1.128,3.843a17.334,17.334,0,0,1,.477,6.364,11.941,11.941,0,0,1-2.879,7.368,6.348,6.348,0,0,1-3.785,2.112,5.023,5.023,0,0,1-.938-.039Z" transform="translate(-3 -10)" style="fill:#fff"/><path d="M33.318,67.217c.122.582.248,1.163.363,1.745a20.575,20.575,0,0,0,2.5,6.928,10.858,10.858,0,0,0,7.3,4.988,21.889,21.889,0,0,0,2.186.211c.161.019.4.123.44.245a.5.5,0,0,1-.173.466,3.848,3.848,0,0,1-1.328.4,9.712,9.712,0,0,1-5.961-1.943,13.191,13.191,0,0,1-5.3-8.533,31.579,31.579,0,0,1-.34-4,2.033,2.033,0,0,1,.086-.5Z" transform="translate(-3 -10)" style="fill:#fff"/><path d="M27.8,60.9q-.165,1.115-.331,2.229c-.2,1.32-.446,2.635-.587,3.961a24.86,24.86,0,0,0-.107,3.052,13.733,13.733,0,0,0,.906,5.264,7.764,7.764,0,0,0,4.34,4.348c.078.031.182.045.226.1.131.173.238.365.354.549-.178.09-.393.3-.528.251a10.832,10.832,0,0,1-2.49-.933,8.662,8.662,0,0,1-3.608-5.409,14.579,14.579,0,0,1-.285-5.257,55.683,55.683,0,0,1,1.1-6.05,16.266,16.266,0,0,1,.781-2.177Z" transform="translate(-3 -10)" style="fill:#fff"/><path d="M54.133,73.524a9.327,9.327,0,0,1-5.494-1.734,21.343,21.343,0,0,1-2-1.921.852.852,0,0,1-.268-.628,1.044,1.044,0,0,1,.483-.686c.166-.066.518.16.7.343.461.466.821,1.04,1.313,1.465a8.081,8.081,0,0,0,5.389,1.749,8.3,8.3,0,0,0,5.936-2.5,2.543,2.543,0,0,0,.49-.7c.26-.5.542-.639.908-.417a.7.7,0,0,1,.194,1.087,20.356,20.356,0,0,1-2.256,2.123,8.145,8.145,0,0,1-3.778,1.632C55.154,73.423,54.558,73.476,54.133,73.524Z" transform="translate(-3 -10)" style="fill:#fff"/><path d="M38.041,81.424a6.738,6.738,0,0,1-3.965-1.149c-2.217-1.407-3.261-3.6-3.953-6.007a14.845,14.845,0,0,1-.464-5.041c.086-1.376.325-2.744.518-4.113.022-.154.186-.287.284-.43.072.148.2.294.206.444.051,1.72.036,3.443.13,5.16a12.619,12.619,0,0,0,2.619,7.65,9.744,9.744,0,0,0,3.858,2.678C37.6,80.752,38.136,80.747,38.041,81.424Z" transform="translate(-3 -10)" style="fill:#fff"/><path d="M75.925,68.649a15.044,15.044,0,0,1-1.364,5.826,13.49,13.49,0,0,1-3.425,4.877,9.532,9.532,0,0,1-4.611,2.426,14.286,14.286,0,0,1-2.125.109.554.554,0,0,1-.382-.109.906.906,0,0,1-.258-.489c-.01-.1.174-.279.3-.307a6.431,6.431,0,0,1,1.153-.163,7.96,7.96,0,0,0,4.681-2.009A14.564,14.564,0,0,0,74.6,71.022c.306-1.087.5-2.205.763-3.307a1.451,1.451,0,0,1,.2-.352c.09.119.233.228.258.359C75.888,68.071,75.9,68.429,75.925,68.649Z" transform="translate(-3 -10)" style="fill:#fff"/><path d="M59.292,29.18c-.122.374-.212.761-.37,1.119-.8,1.817-1.579,3.645-2.441,5.432a33.65,33.65,0,0,1-4.337,6.877c-.753.911-1.663,1.693-2.5,2.531a.841.841,0,0,1-.166.107c-.561.34-.929.359-1.119.009-.262-.483.152-.7.443-.938a19.169,19.169,0,0,0,4.147-4.857c1.023-1.7,1.943-3.461,2.913-5.192.828-1.478,1.649-2.959,2.5-4.421a4.932,4.932,0,0,1,.729-.792Z" transform="translate(-3 -10)" style="fill:#fff"/><path d="M71.189,81.376c-.041-.492.287-.541.571-.644a8.348,8.348,0,0,0,3.547-2.387,12.449,12.449,0,0,0,2.87-5.931c.244-1.333.367-2.689.521-4.037.127-1.11.213-2.224.338-3.334.015-.136.166-.256.253-.384.094.139.258.272.272.419a25.89,25.89,0,0,1-.046,6.709,13.77,13.77,0,0,1-4.094,8.106A5.128,5.128,0,0,1,71.189,81.376Z" transform="translate(-3 -10)" style="fill:#fff"/><path d="M60.306,29.57c.1.4.212.793.294,1.2a34.741,34.741,0,0,0,1.272,5.362,22.077,22.077,0,0,0,3.047,5.565,15.614,15.614,0,0,0,2.465,2.772c.166.137.121.531.173.807-.263.015-.59.139-.777.027A9.942,9.942,0,0,1,64,42.7a17.46,17.46,0,0,1-2.6-4.218,18.522,18.522,0,0,1-1.577-7.592,11.417,11.417,0,0,1,.215-1.314Z" transform="translate(-3 -10)" style="fill:#fff"/><path d="M62.429,32.267c.344.595.692,1.187,1.031,1.785a89.057,89.057,0,0,0,4.865,7.769A36.4,36.4,0,0,0,72.134,46.6a8.061,8.061,0,0,0,.977.806c.413.3.537.657.3.987s-.625.342-1.01-.013a33.1,33.1,0,0,1-3.867-4.4,47.616,47.616,0,0,1-4.713-7.864c-.565-1.152-1.005-2.365-1.5-3.552a.969.969,0,0,1-.036-.231Z" transform="translate(-3 -10)" style="fill:#fff"/><path d="M69.848,50.85c-.1.121-.185.306-.326.369a.718.718,0,0,1-.455-.066c-.084-.03-.144-.132-.212-.2a7.5,7.5,0,0,0-5.468-2.363,12.806,12.806,0,0,0-2.27.415c-.269.043-.717.062-.8-.079-.2-.317.024-.622.34-.843a4.966,4.966,0,0,1,3.743-.744A8.226,8.226,0,0,1,68.662,49.2a8.6,8.6,0,0,1,1.03,1.253A1.765,1.765,0,0,1,69.848,50.85Z" transform="translate(-3 -10)" style="fill:#fff"/><path d="M47.16,49.249c-.159-.03-.32-.051-.477-.09A8.712,8.712,0,0,0,40.22,50.17c-.409.222-.722.614-1.114.877a3.047,3.047,0,0,1-.742.262c.025-.281-.05-.632.09-.831a6.107,6.107,0,0,1,2.159-1.969,6.825,6.825,0,0,1,4.218-.772,8.077,8.077,0,0,1,2.192.981c.116.058.156.269.232.409Z" transform="translate(-3 -10)" style="fill:#fff"/><path d="M51.671,64.472a1.651,1.651,0,0,1,.722-1.531c.265-.2.588-.345.862-.022a.692.692,0,0,1-.013.97.941.941,0,0,0,.4,1.652c.318.137.627.342.5.76-.166.549-.452.638-.994.485A2.342,2.342,0,0,1,51.671,64.472Z" transform="translate(-3 -10)" style="fill:#fff"/><path d="M30.99,49.433c.267,1.428-.6,4.954-1.288,5.315C29.412,53.739,30.29,50.023,30.99,49.433Z" transform="translate(-3 -10)" style="fill:#fff"/></svg>